<svg width="36" height="49" viewBox="0 0 36 49" fill="none" xmlns="http://www.w3.org/2000/svg">
<path d="M6.408 45.962L6.402 47H1.062V38.384H6.402V39.422H2.346V42.152H5.61V43.154H2.346V45.962H6.408ZM12.782 40.904L10.31 47H9.25397L6.78197 40.904H7.74797C7.83997 40.904 7.91597 40.926 7.97597 40.97C8.03597 41.014 8.07597 41.07 8.09597 41.138L9.55397 44.882C9.60597 45.038 9.64997 45.194 9.68597 45.35C9.72597 45.502 9.76197 45.654 9.79397 45.806C9.82597 45.654 9.86197 45.502 9.90197 45.35C9.94197 45.198 9.98997 45.042 10.046 44.882L11.522 41.138C11.546 41.07 11.588 41.014 11.648 40.97C11.708 40.926 11.78 40.904 11.864 40.904H12.782ZM17.5748 43.274C17.5748 43.042 17.5408 42.828 17.4728 42.632C17.4088 42.436 17.3128 42.266 17.1848 42.122C17.0568 41.978 16.9008 41.866 16.7168 41.786C16.5328 41.706 16.3208 41.666 16.0808 41.666C15.5888 41.666 15.2008 41.808 14.9168 42.092C14.6368 42.376 14.4588 42.77 14.3828 43.274H17.5748ZM18.5408 46.13C18.3968 46.298 18.2308 46.444 18.0428 46.568C17.8548 46.688 17.6548 46.786 17.4428 46.862C17.2308 46.938 17.0108 46.994 16.7828 47.03C16.5588 47.066 16.3368 47.084 16.1168 47.084C15.6968 47.084 15.3068 47.014 14.9468 46.874C14.5908 46.73 14.2808 46.522 14.0168 46.25C13.7568 45.974 13.5528 45.634 13.4048 45.23C13.2608 44.822 13.1888 44.354 13.1888 43.826C13.1888 43.402 13.2548 43.008 13.3868 42.644C13.5188 42.276 13.7068 41.956 13.9508 41.684C14.1988 41.412 14.5008 41.198 14.8568 41.042C15.2128 40.886 15.6128 40.808 16.0568 40.808C16.4288 40.808 16.7708 40.87 17.0828 40.994C17.3988 41.114 17.6708 41.29 17.8988 41.522C18.1268 41.754 18.3048 42.04 18.4328 42.38C18.5648 42.72 18.6308 43.108 18.6308 43.544C18.6308 43.724 18.6108 43.846 18.5708 43.91C18.5308 43.97 18.4568 44 18.3488 44H14.3528C14.3648 44.364 14.4168 44.682 14.5088 44.954C14.6008 45.222 14.7268 45.446 14.8868 45.626C15.0508 45.806 15.2448 45.94 15.4688 46.028C15.6928 46.116 15.9428 46.16 16.2188 46.16C16.4788 46.16 16.7028 46.13 16.8908 46.07C17.0828 46.01 17.2468 45.946 17.3828 45.878C17.5228 45.806 17.6388 45.74 17.7308 45.68C17.8268 45.62 17.9108 45.59 17.9828 45.59C18.0788 45.59 18.1528 45.626 18.2048 45.698L18.5408 46.13ZM20.9864 41.75C21.1184 41.61 21.2564 41.482 21.4004 41.366C21.5444 41.25 21.6964 41.152 21.8564 41.072C22.0204 40.988 22.1944 40.924 22.3784 40.88C22.5664 40.832 22.7664 40.808 22.9784 40.808C23.3144 40.808 23.6084 40.864 23.8604 40.976C24.1164 41.088 24.3304 41.246 24.5024 41.45C24.6744 41.65 24.8044 41.892 24.8924 42.176C24.9804 42.46 25.0244 42.774 25.0244 43.118V47H23.8484V43.118C23.8484 42.682 23.7484 42.344 23.5484 42.104C23.3484 41.86 23.0424 41.738 22.6304 41.738C22.3304 41.738 22.0484 41.81 21.7844 41.954C21.5244 42.094 21.2824 42.286 21.0584 42.53V47H19.8884V40.904H20.5904C20.7544 40.904 20.8564 40.982 20.8964 41.138L20.9864 41.75ZM28.4292 47.096C27.9372 47.096 27.5572 46.958 27.2892 46.682C27.0252 46.406 26.8932 46.012 26.8932 45.5V41.852H26.1852C26.1172 41.852 26.0592 41.832 26.0112 41.792C25.9672 41.748 25.9452 41.684 25.9452 41.6V41.126L26.9352 40.988L27.1992 39.17C27.2152 39.102 27.2452 39.05 27.2892 39.014C27.3372 38.974 27.3972 38.954 27.4692 38.954H28.0632V41H29.7912V41.852H28.0632V45.422C28.0632 45.662 28.1212 45.842 28.2372 45.962C28.3572 46.078 28.5092 46.136 28.6932 46.136C28.8012 46.136 28.8932 46.122 28.9692 46.094C29.0492 46.066 29.1172 46.036 29.1732 46.004C29.2292 45.968 29.2772 45.936 29.3172 45.908C29.3572 45.88 29.3932 45.866 29.4252 45.866C29.4652 45.866 29.4952 45.876 29.5152 45.896C29.5392 45.912 29.5632 45.94 29.5872 45.98L29.9352 46.544C29.7432 46.72 29.5152 46.856 29.2512 46.952C28.9872 47.048 28.7132 47.096 28.4292 47.096ZM34.4629 41.954C34.4309 42.006 34.3969 42.044 34.3609 42.068C34.3249 42.088 34.2789 42.098 34.2229 42.098C34.1589 42.098 34.0869 42.076 34.0069 42.032C33.9309 41.988 33.8369 41.94 33.7249 41.888C33.6169 41.836 33.4889 41.788 33.3409 41.744C33.1929 41.7 33.0169 41.678 32.8129 41.678C32.6449 41.678 32.4909 41.7 32.3509 41.744C32.2149 41.784 32.0989 41.842 32.0029 41.918C31.9069 41.99 31.8329 42.078 31.7809 42.182C31.7289 42.282 31.7029 42.39 31.7029 42.506C31.7029 42.658 31.7469 42.784 31.8349 42.884C31.9269 42.984 32.0449 43.07 32.1889 43.142C32.3369 43.214 32.5029 43.28 32.6869 43.34C32.8749 43.396 33.0649 43.456 33.2569 43.52C33.4529 43.584 33.6429 43.658 33.8269 43.742C34.0149 43.822 34.1809 43.924 34.3249 44.048C34.4729 44.168 34.5909 44.314 34.6789 44.486C34.7709 44.658 34.8169 44.868 34.8169 45.116C34.8169 45.4 34.7649 45.664 34.6609 45.908C34.5609 46.148 34.4109 46.356 34.2109 46.532C34.0149 46.708 33.7709 46.846 33.4789 46.946C33.1869 47.046 32.8529 47.096 32.4769 47.096C32.0569 47.096 31.6689 47.026 31.3129 46.886C30.9569 46.746 30.6589 46.568 30.4189 46.352L30.6949 45.902C30.7269 45.846 30.7669 45.804 30.8149 45.776C30.8629 45.744 30.9269 45.728 31.0069 45.728C31.0829 45.728 31.1609 45.756 31.2409 45.812C31.3209 45.868 31.4169 45.93 31.5289 45.998C31.6409 46.062 31.7769 46.122 31.9369 46.178C32.0969 46.23 32.2969 46.256 32.5369 46.256C32.7369 46.256 32.9109 46.232 33.0589 46.184C33.2069 46.132 33.3289 46.064 33.4249 45.98C33.5249 45.892 33.5989 45.792 33.6469 45.68C33.6949 45.568 33.7189 45.45 33.7189 45.326C33.7189 45.166 33.6729 45.034 33.5809 44.93C33.4929 44.822 33.3749 44.73 33.2269 44.654C33.0829 44.578 32.9169 44.512 32.7289 44.456C32.5409 44.4 32.3489 44.34 32.1529 44.276C31.9569 44.212 31.7649 44.138 31.5769 44.054C31.3889 43.97 31.2209 43.864 31.0729 43.736C30.9289 43.608 30.8109 43.452 30.7189 43.268C30.6309 43.084 30.5869 42.86 30.5869 42.596C30.5869 42.36 30.6349 42.134 30.7309 41.918C30.8309 41.702 30.9729 41.512 31.1569 41.348C31.3449 41.184 31.5749 41.054 31.8469 40.958C32.1229 40.858 32.4369 40.808 32.7889 40.808C33.1929 40.808 33.5569 40.872 33.8809 41C34.2089 41.128 34.4889 41.304 34.7209 41.528L34.4629 41.954Z" fill="#450505"/>
<path d="M20.5 27.5H15.5C10.7863 27.5 8.42875 27.5 6.965 26.035C5.5 24.5712 5.5 22.2137 5.5 17.5V15C5.5 10.2863 5.5 7.92875 6.965 6.465C8.42875 5 10.7863 5 15.5 5H20.5C25.2138 5 27.5713 5 29.035 6.465C30.5 7.92875 30.5 10.2863 30.5 15V17.5C30.5 22.2137 30.5 24.5712 29.035 26.035C28.2188 26.8525 27.125 27.2138 25.5 27.3725M11.75 5V3.125M24.25 5V3.125M29.875 11.25H16.4375M5.5 11.25H10.3438" stroke="#450505" stroke-width="1.75" stroke-linecap="round"/>
<path d="M25.5 21.25C25.5 21.5815 25.3683 21.8995 25.1339 22.1339C24.8995 22.3683 24.5815 22.5 24.25 22.5C23.9185 22.5 23.6005 22.3683 23.3661 22.1339C23.1317 21.8995 23 21.5815 23 21.25C23 20.9185 23.1317 20.6005 23.3661 20.3661C23.6005 20.1317 23.9185 20 24.25 20C24.5815 20 24.8995 20.1317 25.1339 20.3661C25.3683 20.6005 25.5 20.9185 25.5 21.25ZM25.5 16.25C25.5 16.5815 25.3683 16.8995 25.1339 17.1339C24.8995 17.3683 24.5815 17.5 24.25 17.5C23.9185 17.5 23.6005 17.3683 23.3661 17.1339C23.1317 16.8995 23 16.5815 23 16.25C23 15.9185 23.1317 15.6005 23.3661 15.3661C23.6005 15.1317 23.9185 15 24.25 15C24.5815 15 24.8995 15.1317 25.1339 15.3661C25.3683 15.6005 25.5 15.9185 25.5 16.25ZM19.25 21.25C19.25 21.5815 19.1183 21.8995 18.8839 22.1339C18.6495 22.3683 18.3315 22.5 18 22.5C17.6685 22.5 17.3505 22.3683 17.1161 22.1339C16.8817 21.8995 16.75 21.5815 16.75 21.25C16.75 20.9185 16.8817 20.6005 17.1161 20.3661C17.3505 20.1317 17.6685 20 18 20C18.3315 20 18.6495 20.1317 18.8839 20.3661C19.1183 20.6005 19.25 20.9185 19.25 21.25ZM19.25 16.25C19.25 16.5815 19.1183 16.8995 18.8839 17.1339C18.6495 17.3683 18.3315 17.5 18 17.5C17.6685 17.5 17.3505 17.3683 17.1161 17.1339C16.8817 16.8995 16.75 16.5815 16.75 16.25C16.75 15.9185 16.8817 15.6005 17.1161 15.3661C17.3505 15.1317 17.6685 15 18 15C18.3315 15 18.6495 15.1317 18.8839 15.3661C19.1183 15.6005 19.25 15.9185 19.25 16.25ZM13 21.25C13 21.5815 12.8683 21.8995 12.6339 22.1339C12.3995 22.3683 12.0815 22.5 11.75 22.5C11.4185 22.5 11.1005 22.3683 10.8661 22.1339C10.6317 21.8995 10.5 21.5815 10.5 21.25C10.5 20.9185 10.6317 20.6005 10.8661 20.3661C11.1005 20.1317 11.4185 20 11.75 20C12.0815 20 12.3995 20.1317 12.6339 20.3661C12.8683 20.6005 13 20.9185 13 21.25ZM13 16.25C13 16.5815 12.8683 16.8995 12.6339 17.1339C12.3995 17.3683 12.0815 17.5 11.75 17.5C11.4185 17.5 11.1005 17.3683 10.8661 17.1339C10.6317 16.8995 10.5 16.5815 10.5 16.25C10.5 15.9185 10.6317 15.6005 10.8661 15.3661C11.1005 15.1317 11.4185 15 11.75 15C12.0815 15 12.3995 15.1317 12.6339 15.3661C12.8683 15.6005 13 15.9185 13 16.25Z" fill="#450505"/>
</svg>
